<svg width="23" height="23" viewBox="0 0 23 23" fill="none" xmlns="http://www.w3.org/2000/svg">
<path d="M17.0881 16.0684L21.2696 20.4797C21.6711 20.9033 21.6582 21.5818 21.2408 21.989C20.8299 22.3898 20.1811 22.3768 19.7859 21.9596L15.6013 17.5434C14.1789 18.6372 12.5749 19.239 10.7894 19.349C9.59632 19.4225 8.44086 19.2568 7.32304 18.8519C6.20522 18.4471 5.23006 17.8699 4.39755 17.1205C3.56504 16.3711 2.88397 15.4572 2.35435 14.379C1.82472 13.3007 1.52444 12.1558 1.45352 10.9445C1.38259 9.73316 1.5472 8.55971 1.94733 7.42414C2.34746 6.28858 2.91706 5.29768 3.65612 4.45146C4.39518 3.60524 5.29603 2.91255 6.35867 2.3734C7.42131 1.83424 8.54915 1.52792 9.74218 1.45443C10.9352 1.38095 12.0907 1.54663 13.2085 1.95148C14.3264 2.35633 15.3016 2.93346 16.134 3.68289C16.9665 4.43231 17.6475 5.34617 18.1772 6.42446C18.7069 7.50276 19.0072 8.64758 19.0781 9.85892C19.1231 10.6275 19.0724 11.3852 18.9262 12.132C18.78 12.8788 18.5506 13.5805 18.2381 14.2369C17.9255 14.8934 17.5422 15.5039 17.0881 16.0684ZM10.6663 17.2437C11.5796 17.1874 12.4411 16.952 13.2509 16.5374C14.0606 16.1228 14.748 15.5921 15.3129 14.9452C15.8779 14.2984 16.3146 13.5421 16.6232 12.6763C16.9317 11.8104 17.0589 10.9139 17.0046 9.98658C16.9504 9.05929 16.7196 8.18477 16.3122 7.36305C15.9049 6.54132 15.3831 5.84402 14.7468 5.27115C14.1105 4.69828 13.3662 4.25575 12.5138 3.94356C11.6615 3.63136 10.7787 3.50339 9.86543 3.55964C8.95212 3.6159 8.09058 3.85131 7.2808 4.26588C6.47103 4.68046 5.78365 5.21119 5.21868 5.85808C4.65372 6.50498 4.21697 7.2613 3.90844 8.12706C3.59992 8.99281 3.47279 9.88937 3.52706 10.8167C3.58133 11.7441 3.81211 12.6186 4.21938 13.4403C4.62666 14.2619 5.1485 14.9592 5.78488 15.5321C6.42127 16.105 7.16558 16.5475 8.01783 16.8597C8.87007 17.1719 9.75288 17.2999 10.6663 17.2437Z" fill="white"/>
</svg>
